custom-analysis
version=1
nRows=7
nColumns=42
inDegrees=no

This file contains tibia displacement and acting force.

Units are S.I. units (seconds, meters, Newtons, ...)
Angles are in degrees.

endheader
time	APT	SIT	knee_angle	aACL_R_force	pACL_R_force	aPCL_R_force	pPCL_R_force	aMCL_R_force	mMCL_R_force	pMCL_R_force	aLCL_R_force	mLCL_R_force	pLCL_R_force	aACL_R_length	pACL_R_length	aPCL_R_length	pPCL_R_length	aMCL_R_length	mMCL_R_length	pMCL_R_length	aLCL_R_length	mLCL_R_length	pLCL_R_length	aACL_R_strain	pACL_R_strain	aPCL_R_strain	pPCL_R_strain	aMCL_R_strain	mMCL_R_strain	pMCL_R_strain	aLCL_R_strain	mLCL_R_strain	pLCL_R_strain	femur_lat_meniscii_force_r	femur_lat_meniscii_torque_r	femur_med_meniscii_force_r	femur_med_meniscii_torque_r	femur_lat_tibia_force_r	femur_lat_tibia_torque_r	femur_med_tibia_force_r	femur_med_tibia_torque_r
      0.27007930	      0.00544839	      0.00134435	     89.99998384	     17.97622371	      2.29843930	    785.48898176	    319.03099389	     28.11243036	      0.00000000	      0.00000000	      0.00000000	      0.00000000	      0.00000000	      0.03303655	      0.02602197	      0.03615669	      0.03252107	      0.06196210	      0.05975393	      0.05621370	      0.04888951	      0.04321788	      0.03798414	      0.04859643	      0.01415786	      0.16277033	      0.08087217	      0.06781504	     -0.00066186	     -0.07433644	     -0.12661740	     -0.23261807	     -0.27431830	    210.50560316	     85.66533763	    102.98763693	     33.49139711	     10.70351345	      0.38000056	    522.96230489	     10.37032555
      0.27584813	      0.00544826	      0.00134330	     89.99998384	     18.46280748	      2.88245220	    787.58881511	    322.22425811	     29.84713372	      0.00000000	      0.00000000	      0.00000000	      0.00000000	      0.00000000	      0.03304122	      0.02602844	      0.03616251	      0.03252357	      0.06194726	      0.05973799	      0.05619733	      0.04891922	      0.04324763	      0.03801322	      0.04874440	      0.01440983	      0.16295742	      0.08095529	      0.06755931	     -0.00092836	     -0.07460591	     -0.12608667	     -0.23208972	     -0.27376275	    207.84498472	     84.57795894	    103.35110255	     33.63562804	      8.51241947	      0.30249572	    530.48123803	     10.52076728
      0.27642501	      0.00544787	      0.00134202	     89.99998384	     18.43160248	      2.80086575	    787.60363520	    321.63221500	     29.37943508	      0.00000000	      0.00000000	      0.00000000	      0.00000000	      0.00000000	      0.03304212	      0.02602967	      0.03616435	      0.03252508	      0.06194691	      0.05973760	      0.05619694	      0.04892332	      0.04325176	      0.03801732	      0.04877323	      0.01445773	      0.16301665	      0.08100575	      0.06755327	     -0.00093486	     -0.07461232	     -0.12601342	     -0.23201645	     -0.27368431	    207.81361546	     84.56480309	    103.50899483	     33.69269975	      8.20299522	      0.29150723	    530.23530932	     10.51629232
      0.27719771	      0.00544759	      0.00134085	     89.99998384	     18.38759443	      2.71066824	    787.64780977	    321.10683790	     28.92690690	      0.00000000	      0.00000000	      0.00000000	      0.00000000	      0.00000000	      0.03304322	      0.02603112	      0.03616619	      0.03252648	      0.06194596	      0.05973656	      0.05619587	      0.04892820	      0.04325666	      0.03802217	      0.04880800	      0.01451437	      0.16307570	      0.08105226	      0.06753688	     -0.00095230	     -0.07463001	     -0.12592625	     -0.23192944	     -0.27359181	    207.65660619	     84.50056653	    103.68006405	     33.74705083	      7.83450159	      0.27843532	    530.45195327	     10.52251175
      0.28005147	      0.00544745	      0.00133913	     89.99998384	     18.35595590	      2.59928861	    787.93673358	    320.44575885	     28.28626023	      0.00000000	      0.00000000	      0.00000000	      0.00000000	      0.00000000	      0.03304649	      0.02603540	      0.03616999	      0.03252868	      0.06194014	      0.05973024	      0.05618931	      0.04894318	      0.04327164	      0.03803682	      0.04891173	      0.01468125	      0.16319787	      0.08112532	      0.06743661	     -0.00105799	     -0.07473793	     -0.12565873	     -0.23166335	     -0.27331191	    206.82095465	     84.15953043	    104.29283135	     33.97061633	      6.84744027	      0.24342065	    533.85594499	     10.59340198
      0.28483842	      0.00544747	      0.00133711	     89.99998384	     18.48817779	      2.72611574	    789.16754177	    321.67011894	     28.73898319	      0.00000000	      0.00000000	      0.00000000	      0.00000000	      0.00000000	      0.03305145	      0.02604189	      0.03617530	      0.03253143	      0.06193018	      0.05971943	      0.05617810	      0.04896643	      0.04329490	      0.03805951	      0.04906931	      0.01493413	      0.16336861	      0.08121657	      0.06726494	     -0.00123876	     -0.07492253	     -0.12524335	     -0.23125040	     -0.27287840	    204.65472539	     83.27521553	    104.75837983	     34.14449594	      5.47080435	      0.19451277	    539.06492754	     10.69858818
      0.28531712	      0.00544733	      0.00133665	     89.99998384	     18.48007635	      2.70534481	    789.27155900	    321.65417224	     28.67720745	      0.00000000	      0.00000000	      0.00000000	      0.00000000	      0.00000000	      0.03305197	      0.02604259	      0.03617611	      0.03253201	      0.06192946	      0.05971865	      0.05617731	      0.04896893	      0.04329741	      0.03806198	      0.04908562	      0.01496153	      0.16339492	      0.08123582	      0.06725249	     -0.00125178	     -0.07493568	     -0.12519867	     -0.23120583	     -0.27283110	    204.46863576	     83.19922112	    104.81090632	     34.16149276	      5.32551230	      0.18934874	    539.29439897	     10.70278856
